<?xml version="1.0" standalone="no"?><!DOCTYPE svg PUBLIC "-//W3C//DTD SVG 1.1//EN" "http://www.w3.org/Graphics/SVG/1.1/DTD/svg11.dtd"><svg t="1651568324733" class="icon" viewBox="0 0 1024 1024" version="1.1" xmlns="http://www.w3.org/2000/svg" p-id="6651" xmlns:xlink="http://www.w3.org/1999/xlink" width="200" height="200"><defs><style type="text/css">@font-face { font-family: feedback-iconfont; src: url("//at.alicdn.com/t/font_1031158_u69w8yhxdu.woff2?t=1630033759944") format("woff2"), url("//at.alicdn.com/t/font_1031158_u69w8yhxdu.woff?t=1630033759944") format("woff"), url("//at.alicdn.com/t/font_1031158_u69w8yhxdu.ttf?t=1630033759944") format("truetype"); }
</style></defs><path d="M512 496.150261v487.112348c13.935304 0 27.91513-0.534261 41.360696-2.003479a245.314783 245.314783 0 0 0 27.737043-3.205565c8.726261-1.068522 16.339478-2.671304 24.486957-4.274087 2.226087 0 3.82887-0.534261 6.010434-1.068521a312.542609 312.542609 0 0 0 32.055653-8.013914c10.373565-2.671304 19.589565-5.87687 29.384347-9.616695 10.907826-3.739826 21.815652-8.013913 32.678957-12.822261 4.36313-1.602783 8.726261-3.739826 13.04487-5.87687 9.794783-4.274087 19.055304-9.616696 28.850086-14.959304 5.431652-2.671304 10.907826-5.87687 15.805218-9.082435 4.897391-3.205565 10.329043-6.41113 15.226435-10.150956 21.77113-14.425043 42.429217-30.45287 62.018782-48.617739 3.82887-3.739826 7.613217-6.945391 10.907826-10.150957 3.784348-3.739826 7.568696-7.479652 10.863305-11.219478 7.613217-8.013913 15.226435-16.562087 21.77113-25.110261 7.613217-8.548174 14.157913-17.096348 20.658087-26.178783 6.544696-8.548174 12.55513-17.630609 17.986783-26.713043 1.068522-1.068522 1.602783-2.671304 2.671304-4.274087v-0.534261c4.897391-6.945391 8.192-14.425043 12.55513-21.370435 0.534261-0.534261 1.068522-1.068522 1.068522-2.137043a274.253913 274.253913 0 0 0 9.260522-17.630609c31.031652-64.111304 48.973913-135.702261 48.973913-212.101565H512z" fill="#7FBDFD" p-id="6652"></path><path d="M509.818435 496.150261V8.904348c-77.245217 0-150.171826 18.69913-215.485218 50.754782C133.253565 139.264 22.26087 304.350609 22.26087 496.150261v0.534261c0 44.877913 5.965913 88.153043 17.408 128.756869a460.933565 460.933565 0 0 0 48.973913 116.46887l13.044869 20.836174c6.544696 10.685217 14.157913 20.836174 21.815652 30.452869 5.965913 8.548174 12.466087 16.562087 19.589566 24.041739 7.034435 8.013913 14.692174 16.027826 21.726608 23.507479 2.715826 2.671304 5.431652 4.808348 7.613218 6.945391 8.726261 8.548174 17.408 16.027826 26.134261 23.507478 0 0.534261 0.534261 0.534261 1.068521 1.068522a461.156174 461.156174 0 0 0 62.597565 43.809391 414.052174 414.052174 0 0 0 57.700174 28.850087c9.216 4.274087 19.010783 8.013913 28.805566 11.219479 8.192 2.671304 16.339478 5.342609 24.486956 7.479652 9.794783 3.205565 20.168348 5.87687 30.497391 8.013913 34.281739 8.013913 69.632 11.753739 106.095305 11.753739 0.75687 0 1.424696-0.133565 2.181565-0.133565V496.150261h-2.181565z" fill="#2885E3" p-id="6653"></path><path d="M566.405565 441.121391h371.133218V79.426783h-371.133218z" fill="#7FBDFD" p-id="6654"></path></svg>